<?xml version="1.0" encoding="utf-8"?>
<!-- Generator: Adobe Illustrator 18.0.0, SVG Export Plug-In . SVG Version: 6.00 Build 0)  -->
<!DOCTYPE svg PUBLIC "-//W3C//DTD SVG 1.1//EN" "http://www.w3.org/Graphics/SVG/1.1/DTD/svg11.dtd">
<svg version="1.1" id="Layer_1" xmlns="http://www.w3.org/2000/svg" xmlns:xlink="http://www.w3.org/1999/xlink" x="0px" y="0px"
	 viewBox="0 0 236 239" enable-background="new 0 0 236 239" xml:space="preserve">
<path d="M194,96.2c-9.2-1.4-18.5-2.1-27.8-2.1c-9.1,0-18.2,0.7-27.3,2c-6.7,1-11.4,6.7-11.3,13.3c-6.6-1.7-13.3-1.7-19.9,0
	c0.1-6.6-4.7-12.3-11.3-13.3c-9-1.3-18.2-2-27.3-2c-9.2,0-18.6,0.7-27.8,2.1c-6.8,1-11.7,7-11.3,13.8l1.4,25.3
	c0.3,6.2,4.9,11.3,11,12.4c8.9,1.5,17.7,2.3,26.3,2.3c8.6,0,17.1-0.8,25.4-2.3c5.7-1.1,10.1-5.8,10.7-11.6l0.2-2l0.6,0.9
	c1.2,1.8,3.9,1.1,4.1-1l0.8-9.9c0.1-1.6-1.5-2.8-3-2.3l-1.2,0.4l0.6-5.4c7.2-2.3,14.2-2.3,21.4,0l0.6,5.4l-1.2-0.4
	c-1.5-0.6-3.1,0.7-3,2.3l0.8,9.9c0.2,2.1,2.9,2.8,4.1,1l0.6-0.9l0.2,2c0.6,5.8,5,10.5,10.7,11.6c8.3,1.5,16.8,2.3,25.4,2.3
	c0,0,0,0,0,0c8.6,0,17.4-0.8,26.3-2.3c6.1-1.1,10.7-6.1,11-12.4l1.4-25.3C205.7,103.2,200.8,97.2,194,96.2z M100.7,109.9l-2.8,25.4
	c-0.3,2.7-2.4,5-5,5.5c-7.9,1.5-16,2.2-24.1,2.2c-8.2,0-16.6-0.7-25.1-2.2c-2.9-0.5-5.1-2.9-5.2-5.8l-1.4-25.3
	c-0.2-3.2,2.1-6.1,5.3-6.5c8.9-1.3,17.9-2,26.7-2c8.7,0,17.6,0.6,26.3,1.9C98.7,103.5,101.1,106.6,100.7,109.9z M198.3,109.7
	l-1.4,25.3c-0.2,2.9-2.3,5.3-5.2,5.8c-8.5,1.5-16.9,2.2-25.1,2.2h0c-8.2,0-16.3-0.7-24.1-2.2c-2.7-0.5-4.7-2.7-5-5.5l-2.8-25.4
	c-0.4-3.4,2-6.4,5.3-6.9c8.7-1.3,17.6-1.9,26.3-1.9c8.9,0,17.9,0.7,26.7,2C196.2,103.6,198.5,106.4,198.3,109.7z"/>
</svg>
